<mxfile host="app.diagrams.net" modified="2023-10-11T16:52:55.772Z" agent="Mozilla/5.0 (Windows NT 10.0; Win64; x64) AppleWebKit/537.36 (KHTML, like Gecko) Chrome/117.0.0.0 Safari/537.36" etag="cJVKWoBSLk22SZjxcgra" version="22.0.4" type="github">
  <diagram name="Page-1" id="e7e014a7-5840-1c2e-5031-d8a46d1fe8dd">
    <mxGraphModel dx="1195" dy="625" grid="1" gridSize="10" guides="1" tooltips="1" connect="1" arrows="1" fold="1" page="1" pageScale="1" pageWidth="1169" pageHeight="826" background="none" math="0" shadow="0">
      <root>
        <mxCell id="0" />
        <mxCell id="1" parent="0" />
        <mxCell id="S8ZAYDHfg0fLD9e-Zvhs-59" value="" style="endArrow=open;strokeColor=#FF0000;endFill=1;rounded=0" edge="1" parent="1">
          <mxGeometry relative="1" as="geometry">
            <mxPoint x="1010" y="400" as="sourcePoint" />
            <mxPoint x="580" y="590" as="targetPoint" />
            <Array as="points">
              <mxPoint x="1010" y="590" />
            </Array>
          </mxGeometry>
        </mxCell>
        <mxCell id="2" value="Execução" style="swimlane;whiteSpace=wrap" parent="1" vertex="1">
          <mxGeometry x="164.5" y="128" width="280" height="570" as="geometry" />
        </mxCell>
        <mxCell id="6" value="" style="edgeStyle=elbowEdgeStyle;elbow=horizontal;verticalAlign=bottom;endArrow=open;endSize=8;strokeColor=#FF0000;endFill=1;rounded=0" parent="2" target="7" edge="1">
          <mxGeometry x="100" y="40" as="geometry">
            <mxPoint x="115" y="110" as="targetPoint" />
            <mxPoint x="115" y="70" as="sourcePoint" />
          </mxGeometry>
        </mxCell>
        <mxCell id="7" value="HomeScreen" style="" parent="2" vertex="1">
          <mxGeometry x="60" y="110" width="110" height="50" as="geometry" />
        </mxCell>
        <mxCell id="8" value="Escolher a opção" style="" parent="2" vertex="1">
          <mxGeometry x="60" y="220" width="110" height="50" as="geometry" />
        </mxCell>
        <mxCell id="9" value="" style="endArrow=open;strokeColor=#FF0000;endFill=1;rounded=0" parent="2" source="7" target="8" edge="1">
          <mxGeometry relative="1" as="geometry" />
        </mxCell>
        <mxCell id="10" value="Op Selecionada" style="" parent="2" vertex="1">
          <mxGeometry x="60" y="325" width="110" height="50" as="geometry" />
        </mxCell>
        <mxCell id="11" value="" style="endArrow=open;strokeColor=#FF0000;endFill=1;rounded=0" parent="2" source="8" target="10" edge="1">
          <mxGeometry relative="1" as="geometry" />
        </mxCell>
        <mxCell id="12" value="" style="edgeStyle=elbowEdgeStyle;elbow=horizontal;strokeColor=#FF0000;endArrow=open;endFill=1;rounded=0" parent="2" source="10" target="7" edge="1">
          <mxGeometry width="100" height="100" relative="1" as="geometry">
            <mxPoint x="160" y="290" as="sourcePoint" />
            <mxPoint x="260" y="190" as="targetPoint" />
            <Array as="points">
              <mxPoint x="30" y="250" />
            </Array>
          </mxGeometry>
        </mxCell>
        <mxCell id="S8ZAYDHfg0fLD9e-Zvhs-41" value="" style="endArrow=open;strokeColor=#FF0000;endFill=1;rounded=0" edge="1" parent="2">
          <mxGeometry relative="1" as="geometry">
            <mxPoint x="170" y="332" as="sourcePoint" />
            <mxPoint x="295.5" y="132" as="targetPoint" />
            <Array as="points">
              <mxPoint x="215.5" y="132" />
            </Array>
          </mxGeometry>
        </mxCell>
        <mxCell id="S8ZAYDHfg0fLD9e-Zvhs-42" value="" style="endArrow=open;strokeColor=#FF0000;endFill=1;rounded=0" edge="1" parent="2">
          <mxGeometry relative="1" as="geometry">
            <mxPoint x="170" y="342" as="sourcePoint" />
            <mxPoint x="295.5" y="232" as="targetPoint" />
            <Array as="points">
              <mxPoint x="235.5" y="232" />
            </Array>
          </mxGeometry>
        </mxCell>
        <mxCell id="20" value="" style="endArrow=open;strokeColor=#FF0000;endFill=1;rounded=0" parent="2" edge="1">
          <mxGeometry relative="1" as="geometry">
            <mxPoint x="170" y="362" as="sourcePoint" />
            <mxPoint x="300" y="362" as="targetPoint" />
          </mxGeometry>
        </mxCell>
        <mxCell id="S8ZAYDHfg0fLD9e-Zvhs-45" value="Actor" style="shape=umlActor;verticalLabelPosition=bottom;verticalAlign=top;html=1;" vertex="1" parent="2">
          <mxGeometry x="107.75" y="32" width="14.5" height="28" as="geometry" />
        </mxCell>
        <mxCell id="3" value="Modal" style="swimlane;whiteSpace=wrap" parent="1" vertex="1">
          <mxGeometry x="444.5" y="128" width="280" height="570" as="geometry" />
        </mxCell>
        <mxCell id="13" value="" style="ellipse;shape=startState;fillColor=#000000;strokeColor=#ff0000;" parent="3" vertex="1">
          <mxGeometry x="60" y="40" width="30" height="30" as="geometry" />
        </mxCell>
        <mxCell id="14" value="" style="edgeStyle=elbowEdgeStyle;elbow=horizontal;verticalAlign=bottom;endArrow=open;endSize=8;strokeColor=#FF0000;endFill=1;rounded=0" parent="3" source="13" target="15" edge="1">
          <mxGeometry x="40" y="20" as="geometry">
            <mxPoint x="55" y="90" as="targetPoint" />
          </mxGeometry>
        </mxCell>
        <mxCell id="15" value="Form_Entrega" style="" parent="3" vertex="1">
          <mxGeometry x="20" y="110" width="110" height="50" as="geometry" />
        </mxCell>
        <mxCell id="16" value="Form_Devolução" style="" parent="3" vertex="1">
          <mxGeometry x="20" y="220" width="110" height="50" as="geometry" />
        </mxCell>
        <mxCell id="17" value="" style="endArrow=open;strokeColor=#FF0000;endFill=1;rounded=0" parent="3" source="15" target="16" edge="1">
          <mxGeometry relative="1" as="geometry" />
        </mxCell>
        <mxCell id="18" value="Form_incidente" style="" parent="3" vertex="1">
          <mxGeometry x="20" y="325" width="110" height="50" as="geometry" />
        </mxCell>
        <mxCell id="19" value="" style="endArrow=open;strokeColor=#FF0000;endFill=1;rounded=0" parent="3" source="16" target="18" edge="1">
          <mxGeometry relative="1" as="geometry" />
        </mxCell>
        <mxCell id="24" value="" style="endArrow=open;strokeColor=#FF0000;endFill=1;rounded=0" parent="3" source="16" edge="1">
          <mxGeometry relative="1" as="geometry">
            <mxPoint x="385.5" y="245" as="targetPoint" />
          </mxGeometry>
        </mxCell>
        <mxCell id="30" value="consultar" style="" parent="3" vertex="1">
          <mxGeometry x="20" y="412" width="110" height="50" as="geometry" />
        </mxCell>
        <mxCell id="32" value="" style="endArrow=none;strokeColor=#FF0000;endFill=0;rounded=0;dashed=1;exitX=1;exitY=0.5;exitDx=0;exitDy=0;" parent="3" source="30" edge="1">
          <mxGeometry relative="1" as="geometry">
            <mxPoint x="405.5" y="437" as="targetPoint" />
            <Array as="points">
              <mxPoint x="215.5" y="437" />
            </Array>
          </mxGeometry>
        </mxCell>
        <mxCell id="S8ZAYDHfg0fLD9e-Zvhs-43" value="" style="endArrow=open;strokeColor=#FF0000;endFill=1;rounded=0" edge="1" parent="3">
          <mxGeometry relative="1" as="geometry">
            <mxPoint x="130" y="134.57999999999998" as="sourcePoint" />
            <mxPoint x="385.5" y="132" as="targetPoint" />
          </mxGeometry>
        </mxCell>
        <mxCell id="4" value="Databases" style="swimlane;whiteSpace=wrap" parent="1" vertex="1">
          <mxGeometry x="724.5" y="128" width="335.5" height="570" as="geometry" />
        </mxCell>
        <mxCell id="S8ZAYDHfg0fLD9e-Zvhs-49" value="List_Entrega" style="shape=cylinder3;whiteSpace=wrap;html=1;boundedLbl=1;backgroundOutline=1;size=15;" vertex="1" parent="4">
          <mxGeometry x="110" y="92" width="60" height="68" as="geometry" />
        </mxCell>
        <mxCell id="S8ZAYDHfg0fLD9e-Zvhs-50" value="List_Devol" style="shape=cylinder3;whiteSpace=wrap;html=1;boundedLbl=1;backgroundOutline=1;size=15;" vertex="1" parent="4">
          <mxGeometry x="110" y="202" width="60" height="68" as="geometry" />
        </mxCell>
        <mxCell id="S8ZAYDHfg0fLD9e-Zvhs-51" value="List_incidente" style="shape=cylinder3;whiteSpace=wrap;html=1;boundedLbl=1;backgroundOutline=1;size=15;" vertex="1" parent="4">
          <mxGeometry x="110" y="302" width="60" height="68" as="geometry" />
        </mxCell>
        <mxCell id="S8ZAYDHfg0fLD9e-Zvhs-52" value="" style="endArrow=open;strokeColor=#FF0000;endFill=1;rounded=0" edge="1" parent="4">
          <mxGeometry relative="1" as="geometry">
            <mxPoint x="-149.5" y="352" as="sourcePoint" />
            <mxPoint x="95.5" y="352" as="targetPoint" />
          </mxGeometry>
        </mxCell>
        <mxCell id="S8ZAYDHfg0fLD9e-Zvhs-54" value="List_Listas" style="shape=cylinder3;whiteSpace=wrap;html=1;boundedLbl=1;backgroundOutline=1;size=15;" vertex="1" parent="4">
          <mxGeometry x="245.5" y="202" width="60" height="68" as="geometry" />
        </mxCell>
        <mxCell id="S8ZAYDHfg0fLD9e-Zvhs-58" value="" style="endArrow=none;strokeColor=#FF0000;endFill=0;rounded=0;dashed=1;exitX=1;exitY=0.5;exitDx=0;exitDy=0;" edge="1" parent="4">
          <mxGeometry relative="1" as="geometry">
            <mxPoint x="170" y="439" as="sourcePoint" />
            <mxPoint x="275.5" y="272" as="targetPoint" />
            <Array as="points">
              <mxPoint x="255.5" y="439" />
              <mxPoint x="275.5" y="439" />
            </Array>
          </mxGeometry>
        </mxCell>
        <mxCell id="S8ZAYDHfg0fLD9e-Zvhs-53" value="" style="verticalLabelPosition=bottom;verticalAlign=top;html=1;shadow=0;dashed=0;strokeWidth=1;shape=mxgraph.ios.iSortFindIcon;fillColor=#8BbEff;fillColor2=#135Ec8;strokeColor=#ffffff;sketch=0;" vertex="1" parent="4">
          <mxGeometry x="130" y="432" width="40" height="40" as="geometry" />
        </mxCell>
        <mxCell id="S8ZAYDHfg0fLD9e-Zvhs-60" value="" style="shape=curlyBracket;whiteSpace=wrap;html=1;rounded=1;flipH=1;labelPosition=right;verticalLabelPosition=middle;align=left;verticalAlign=middle;" vertex="1" parent="4">
          <mxGeometry x="195.5" y="112" width="34.5" height="258" as="geometry" />
        </mxCell>
      </root>
    </mxGraphModel>
  </diagram>
</mxfile>
